<?xml version="1.0" encoding="UTF-8" standalone="no"?>
<!-- Created with Inkscape (http://www.inkscape.org/) -->

<svg
   xmlns:dc="http://purl.org/dc/elements/1.1/"
   xmlns:cc="http://creativecommons.org/ns#"
   xmlns:rdf="http://www.w3.org/1999/02/22-rdf-syntax-ns#"
   xmlns:svg="http://www.w3.org/2000/svg"
   xmlns="http://www.w3.org/2000/svg"
   xmlns:sodipodi="http://sodipodi.sourceforge.net/DTD/sodipodi-0.dtd"
   xmlns:inkscape="http://www.inkscape.org/namespaces/inkscape"
   width="148.66809"
   height="134.58009"
   id="svg4077"
   version="1.1"
   inkscape:version="0.47 r22583"
   sodipodi:docname="New document 10">
  <defs
     id="defs4079">
    <inkscape:perspective
       sodipodi:type="inkscape:persp3d"
       inkscape:vp_x="0 : 526.18109 : 1"
       inkscape:vp_y="0 : 1000 : 0"
       inkscape:vp_z="744.09448 : 526.18109 : 1"
       inkscape:persp3d-origin="372.04724 : 350.78739 : 1"
       id="perspective4085" />
    <inkscape:perspective
       id="perspective4072"
       inkscape:persp3d-origin="0.5 : 0.33333333 : 1"
       inkscape:vp_z="1 : 0.5 : 1"
       inkscape:vp_y="0 : 1000 : 0"
       inkscape:vp_x="0 : 0.5 : 1"
       sodipodi:type="inkscape:persp3d" />
  </defs>
  <sodipodi:namedview
     id="base"
     pagecolor="#ffffff"
     bordercolor="#666666"
     borderopacity="1.0"
     inkscape:pageopacity="0.0"
     inkscape:pageshadow="2"
     inkscape:zoom="1.979899"
     inkscape:cx="100.11655"
     inkscape:cy="79.738773"
     inkscape:document-units="px"
     inkscape:current-layer="layer1"
     showgrid="false"
     inkscape:window-width="710"
     inkscape:window-height="662"
     inkscape:window-x="110"
     inkscape:window-y="85"
     inkscape:window-maximized="0" />
  <metadata
     id="metadata4082">
    <rdf:RDF>
      <cc:Work
         rdf:about="">
        <dc:format>image/svg+xml</dc:format>
        <dc:type
           rdf:resource="http://purl.org/dc/dcmitype/StillImage" />
        <dc:title></dc:title>
      </cc:Work>
    </rdf:RDF>
  </metadata>
  <g
     inkscape:label="Layer 1"
     inkscape:groupmode="layer"
     id="layer1"
     transform="translate(-360.15106,-367.1815)">
    <path
       style="fill:#8d5fd3;stroke:none"
       d="m 372.04713,369.57073 c -2.54652,-0.003 -4.37744,0.6648 -6.5663,1.08367 -2.74966,0.93113 -4.42343,3.01966 -3.68155,7.73202 -0.50227,2.49686 0.5953,4.44702 1.52943,6.45603 0.74901,3.64469 -2.31014,2.52106 5.11824,15.08612 0.79343,1.342 1.87517,2.47765 1.70049,4.03849 -2.719,3.84932 -2.51647,7.45465 -0.93871,10.94906 -4.28988,8.66928 4.47632,14.97471 11.03445,16.09938 l 14.43594,-0.32762 c -12.72735,3.61128 -20.97,7.90274 -25.30358,13.82613 -1.62973,2.22771 -3.71262,8.52857 -0.19711,8.71299 l 0.27436,4.9701 c -1.75201,2.24884 -1.44292,4.48009 1.7771,6.70091 l 0.0273,4.86369 c -0.39816,1.99575 -1.25747,3.65805 2.52217,5.08054 0.47665,2.62732 0.96241,4.12157 0.79411,7.07587 -1.08172,3.91809 0.77855,5.35329 3.63531,5.95163 1.3799,1.77252 3.16441,2.92285 3.63594,6.07471 -0.21245,1.83355 1.50508,3.14278 6.74587,3.456 l 3.49248,2.45843 c 1.57092,1.37937 3.05674,1.12329 6.7078,-0.53042 14.79529,-6.70094 27.28833,-17.35991 35.13676,-36.06151 0.38212,4.10676 1.10105,6.23699 2.51337,6.25039 1.42915,0.0129 2.11077,-2.17057 2.42676,-6.38597 8.05579,18.68774 20.7158,29.22222 35.61863,35.77031 3.6696,1.61239 5.17366,1.86708 6.72899,0.47004 l 3.46438,-2.51308 c 5.23691,-0.37222 6.92435,-1.68528 6.6911,-3.51632 0.4361,-3.15693 2.223,-4.32732 3.5826,-6.11544 2.84984,-0.63043 4.69375,-2.08658 3.56806,-5.99219 -0.20165,-2.95223 0.26718,-4.46726 0.7142,-7.09973 3.76331,-1.46498 2.87005,-3.11745 2.44995,-5.10824 l -0.0273,-4.84833 c 3.1946,-2.25703 3.4785,-4.50703 1.70125,-6.73597 l 0.23366,-4.97292 c 3.51329,-0.22404 1.34402,-6.50094 -0.31072,-8.71011 -4.40004,-5.87416 -12.67524,-10.07249 -25.4424,-13.54008 l 14.42331,0.18032 c 6.54503,-1.19849 15.23899,-7.61748 10.85217,-16.23816 1.53826,-3.51202 1.71544,-7.11947 -1.04677,-10.93786 -0.19212,-1.55873 0.87652,-2.7066 1.65496,-4.0574 7.28618,-12.64802 4.2399,-11.48994 4.9477,-15.14289 0.9111,-2.01958 1.9877,-3.98146 1.45664,-6.47283 0.68896,-4.72056 -1.00837,-6.79017 -3.7683,-7.69015 -2.50683,-0.45056 -4.55128,-1.23565 -7.71679,-0.957 -33.83684,2.97869 -46.77358,28.3481 -59.13584,54.66721 -0.0886,-3.74214 -0.82533,-5.37259 -3.44679,-5.29079 -2.35726,0.0736 -3.07909,1.66369 -3.18744,5.2205 -12.6422,-26.13912 -25.86489,-51.29626 -59.6863,-53.88963 -0.39601,-0.0304 -0.77535,-0.0393 -1.13917,-0.0398 z"
       id="path3564-8" />
  </g>
</svg>
