<?xml version="1.0" encoding="UTF-8" standalone="no"?>
<!-- Created with Inkscape (http://www.inkscape.org/) -->

<svg
   xmlns:dc="http://purl.org/dc/elements/1.1/"
   xmlns:cc="http://creativecommons.org/ns#"
   xmlns:rdf="http://www.w3.org/1999/02/22-rdf-syntax-ns#"
   xmlns:svg="http://www.w3.org/2000/svg"
   xmlns="http://www.w3.org/2000/svg"
   xmlns:xlink="http://www.w3.org/1999/xlink"
   xmlns:sodipodi="http://sodipodi.sourceforge.net/DTD/sodipodi-0.dtd"
   xmlns:inkscape="http://www.inkscape.org/namespaces/inkscape"
   width="744.09448819"
   height="1052.3622047"
   id="svg4539"
   version="1.1"
   inkscape:version="0.48.1 "
   sodipodi:docname="LayeredFlower.svg">
  <defs
     id="defs4541">
    <pattern
       inkscape:collect="always"
       xlink:href="#Polkadots-medwhite"
       id="pattern5435"
       patternTransform="matrix(10,0,0,10,55.714286,88.571429)" />
    <pattern
       inkscape:stockid="Polka dots, medium white"
       id="Polkadots-medwhite"
       patternTransform="translate(0,0) scale(10,10)"
       height="10"
       width="10"
       patternUnits="userSpaceOnUse"
       inkscape:collect="always">
      <circle
         id="circle4848"
         r="0.15"
         cy="0.810"
         cx="2.567"
         style="fill:white;stroke:none" />
      <circle
         id="circle4850"
         r="0.15"
         cy="2.33"
         cx="3.048"
         style="fill:white;stroke:none" />
      <circle
         id="circle4852"
         r="0.15"
         cy="2.415"
         cx="4.418"
         style="fill:white;stroke:none" />
      <circle
         id="circle4854"
         r="0.15"
         cy="3.029"
         cx="1.844"
         style="fill:white;stroke:none" />
      <circle
         id="circle4856"
         r="0.15"
         cy="1.363"
         cx="6.08"
         style="fill:white;stroke:none" />
      <circle
         id="circle4858"
         r="0.15"
         cy="4.413"
         cx="5.819"
         style="fill:white;stroke:none" />
      <circle
         id="circle4860"
         r="0.15"
         cy="4.048"
         cx="4.305"
         style="fill:white;stroke:none" />
      <circle
         id="circle4862"
         r="0.15"
         cy="3.045"
         cx="5.541"
         style="fill:white;stroke:none" />
      <circle
         id="circle4864"
         r="0.15"
         cy="5.527"
         cx="4.785"
         style="fill:white;stroke:none" />
      <circle
         id="circle4866"
         r="0.15"
         cy="5.184"
         cx="2.667"
         style="fill:white;stroke:none" />
      <circle
         id="circle4868"
         r="0.15"
         cy="1.448"
         cx="7.965"
         style="fill:white;stroke:none" />
      <circle
         id="circle4870"
         r="0.15"
         cy="5.049"
         cx="7.047"
         style="fill:white;stroke:none" />
      <circle
         id="circle4872"
         r="0.15"
         cy="0.895"
         cx="4.340"
         style="fill:white;stroke:none" />
      <circle
         id="circle4874"
         r="0.15"
         cy="0.340"
         cx="7.125"
         style="fill:white;stroke:none" />
      <circle
         id="circle4876"
         r="0.15"
         cy="1.049"
         cx="9.553"
         style="fill:white;stroke:none" />
      <circle
         id="circle4878"
         r="0.15"
         cy="2.689"
         cx="7.006"
         style="fill:white;stroke:none" />
      <circle
         id="circle4880"
         r="0.15"
         cy="2.689"
         cx="8.909"
         style="fill:white;stroke:none" />
      <circle
         id="circle4882"
         r="0.15"
         cy="4.407"
         cx="9.315"
         style="fill:white;stroke:none" />
      <circle
         id="circle4884"
         r="0.15"
         cy="3.870"
         cx="7.820"
         style="fill:white;stroke:none" />
      <circle
         id="circle4886"
         r="0.15"
         cy="5.948"
         cx="8.270"
         style="fill:white;stroke:none" />
      <circle
         id="circle4888"
         r="0.15"
         cy="7.428"
         cx="7.973"
         style="fill:white;stroke:none" />
      <circle
         id="circle4890"
         r="0.15"
         cy="8.072"
         cx="9.342"
         style="fill:white;stroke:none" />
      <circle
         id="circle4892"
         r="0.15"
         cy="9.315"
         cx="8.206"
         style="fill:white;stroke:none" />
      <circle
         id="circle4894"
         r="0.15"
         cy="9.475"
         cx="9.682"
         style="fill:white;stroke:none" />
      <circle
         id="circle4896"
         r="0.15"
         cy="6.186"
         cx="9.688"
         style="fill:white;stroke:none" />
      <circle
         id="circle4898"
         r="0.15"
         cy="6.296"
         cx="3.379"
         style="fill:white;stroke:none" />
      <circle
         id="circle4900"
         r="0.15"
         cy="8.204"
         cx="2.871"
         style="fill:white;stroke:none" />
      <circle
         id="circle4902"
         r="0.15"
         cy="8.719"
         cx="4.59"
         style="fill:white;stroke:none" />
      <circle
         id="circle4904"
         r="0.15"
         cy="9.671"
         cx="3.181"
         style="fill:white;stroke:none" />
      <circle
         id="circle4906"
         r="0.15"
         cy="7.315"
         cx="5.734"
         style="fill:white;stroke:none" />
      <circle
         id="circle4908"
         r="0.15"
         cy="6.513"
         cx="6.707"
         style="fill:white;stroke:none" />
      <circle
         id="circle4910"
         r="0.15"
         cy="9.670"
         cx="5.730"
         style="fill:white;stroke:none" />
      <circle
         id="circle4912"
         r="0.15"
         cy="8.373"
         cx="6.535"
         style="fill:white;stroke:none" />
      <circle
         id="circle4914"
         r="0.15"
         cy="7.154"
         cx="4.37"
         style="fill:white;stroke:none" />
      <circle
         id="circle4916"
         r="0.15"
         cy="7.25"
         cx="0.622"
         style="fill:white;stroke:none" />
      <circle
         id="circle4918"
         r="0.15"
         cy="5.679"
         cx="0.831"
         style="fill:white;stroke:none" />
      <circle
         id="circle4920"
         r="0.15"
         cy="8.519"
         cx="1.257"
         style="fill:white;stroke:none" />
      <circle
         id="circle4922"
         r="0.15"
         cy="6.877"
         cx="1.989"
         style="fill:white;stroke:none" />
      <circle
         id="circle4924"
         r="0.15"
         cy="3.181"
         cx="0.374"
         style="fill:white;stroke:none" />
      <circle
         id="circle4926"
         r="0.15"
         cy="1.664"
         cx="1.166"
         style="fill:white;stroke:none" />
      <circle
         id="circle4928"
         r="0.15"
         cy="0.093"
         cx="1.151"
         style="fill:white;stroke:none" />
      <circle
         id="circle4930"
         r="0.15"
         cy="10.093"
         cx="1.151"
         style="fill:white;stroke:none" />
      <circle
         id="circle4932"
         r="0.15"
         cy="4.451"
         cx="1.302"
         style="fill:white;stroke:none" />
      <circle
         id="circle4934"
         r="0.15"
         cy="3.763"
         cx="3.047"
         style="fill:white;stroke:none" />
    </pattern>
  </defs>
  <sodipodi:namedview
     id="base"
     pagecolor="#ffffff"
     bordercolor="#666666"
     borderopacity="1.0"
     inkscape:pageopacity="0.0"
     inkscape:pageshadow="2"
     inkscape:zoom="0.7"
     inkscape:cx="172.87213"
     inkscape:cy="876.1244"
     inkscape:document-units="px"
     inkscape:current-layer="layer1"
     showgrid="false"
     inkscape:window-width="1366"
     inkscape:window-height="706"
     inkscape:window-x="-8"
     inkscape:window-y="-8"
     inkscape:window-maximized="1" />
  <metadata
     id="metadata4544">
    <rdf:RDF>
      <cc:Work
         rdf:about="">
        <dc:format>image/svg+xml</dc:format>
        <dc:type
           rdf:resource="http://purl.org/dc/dcmitype/StillImage" />
        <dc:title></dc:title>
      </cc:Work>
    </rdf:RDF>
  </metadata>
  <g
     inkscape:label="Layer 1"
     inkscape:groupmode="layer"
     id="layer1">
    <path
       style="color:#000000;fill:#aa87de;fill-opacity:1;fill-rule:evenodd;stroke:none;stroke-width:5.5999999;marker:none;visibility:visible;display:inline;overflow:visible;enable-background:accumulate"
       d="M 248.90625,33.3125 C 224.76507,33.974419 203.67216,57.120577 200.6875,87.5 c -0.29532,3.005967 -0.38055,5.98742 -0.3125,8.90625 -0.28209,-0.207711 -0.5576,-0.420461 -0.84375,-0.625 -26.48945,-18.934367 -60.33322,-16.974706 -75.59375,4.375 -15.26053,21.34971 -6.1457,54.00313 20.34375,72.9375 3.73507,2.66979 7.60767,4.90676 11.5625,6.75 -2.41334,2.10002 -4.74456,4.38179 -6.9375,6.875 -21.50458,24.44901 -22.95517,58.3242 -3.25,75.65625 19.70517,17.33205 53.12042,11.54276 74.625,-12.90625 3.6929,-4.19853 6.77631,-8.65852 9.28125,-13.28125 1.57983,5.76256 3.94064,11.51789 7.15625,17.0625 16.3353,28.16663 47.98604,40.32202 70.6875,27.15625 22.70146,-13.16577 27.86655,-46.67712 11.53125,-74.84375 -1.51943,-2.61992 -3.17267,-5.07079 -4.9375,-7.40625 9.21927,-1.0468 18.69534,-4.15657 27.625,-9.4375 28.02646,-16.57464 39.92117,-48.31776 26.5625,-70.90625 -13.30482,-22.497428 -46.63634,-27.429393 -74.59375,-11.09375 0.76771,-3.20226 1.35295,-6.53228 1.6875,-9.9375 3.18363,-32.404718 -15.41402,-60.746586 -41.53125,-63.3125 -1.63233,-0.16037 -3.23434,-0.200378 -4.84375,-0.15625 z"
       id="path4505"
       inkscape:connector-curvature="0"
       sodipodi:nodetypes="sscssscssscssscsscsss" />
    <path
       style="color:#000000;fill:#e3d7f4;fill-opacity:1;fill-rule:evenodd;stroke:none;stroke-width:5.5999999;marker:none;visibility:visible;display:inline;overflow:visible;enable-background:accumulate"
       d="m 514.65625,63.59375 c -18.9778,-0.3227 -35.54,17.869938 -37.4375,41.59375 -0.21898,2.73786 -0.23733,5.43119 -0.0625,8.0625 -1.8764,-1.79995 -3.92313,-3.48863 -6.125,-5.0625 C 451.04477,93.901384 425.51418,95.36024 414,111.46875 c -11.51419,16.1085 -4.64273,40.74513 15.34375,55.03125 3.69905,2.64404 7.57607,4.77244 11.53125,6.34375 -1.76857,1.85207 -3.45084,3.83271 -5,6 -14.28612,19.98648 -12.82726,45.54832 3.28125,57.0625 16.1085,11.51419 40.74513,4.64273 55.03125,-15.34375 2.44826,-3.42514 4.4407,-7.03488 5.96875,-10.6875 0.60223,5.33827 2.06063,10.80017 4.46875,16.125 10.12333,22.38461 32.95868,33.9091 51,25.75 18.04133,-8.15909 24.46707,-32.92788 14.34375,-55.3125 -0.93921,-2.07678 -2.01223,-4.05461 -3.15625,-5.9375 4.32992,-0.75968 8.71104,-2.06034 13,-4 22.38461,-10.12333 33.90909,-32.95867 25.75,-51 -8.1591,-18.04133 -32.92789,-24.46707 -55.3125,-14.34375 -1.36868,0.61898 -2.68323,1.29 -3.96875,2 1.23493,-3.85847 2.06229,-7.94954 2.40625,-12.25 C 550.64621,86.417153 536.23748,65.266162 516.5,63.6875 c -0.6168,-0.04933 -1.23156,-0.08334 -1.84375,-0.09375 z"
       id="path4505-8-2"
       inkscape:connector-curvature="0"
       sodipodi:nodetypes="sscssscssscssscssscsss" />
  </g>
</svg>
